<svg width="123" height="168" viewBox="0 0 123 168" fill="none" xmlns="http://www.w3.org/2000/svg">
<path opacity="0.5" d="M66.541 31.75C61.041 31.75 56.166 33.0833 51.916 35.75C47.7494 38.3333 44.2077 41.375 41.291 44.875C38.4577 48.375 36.291 51.5833 34.791 54.5C33.291 57.3333 32.4577 59 32.291 59.5L0.291016 44.875C0.457682 43.7917 1.24935 41.625 2.66602 38.375C4.08268 35.0417 6.33268 31.2083 9.41602 26.875C12.4994 22.5417 16.541 18.3333 21.541 14.25C26.6244 10.1667 32.8744 6.79166 40.291 4.12499C47.7077 1.37499 56.4577 -1.26362e-05 66.541 -1.26362e-05C78.2077 -1.26362e-05 87.8744 1.66666 95.541 5C103.291 8.33333 109.374 12.7083 113.791 18.125C118.291 23.4583 121.499 29.25 123.416 35.5C125.333 41.75 126.291 47.75 126.291 53.5C126.291 60.6667 124.833 67.625 121.916 74.375C119.083 81.0417 115.374 87.375 110.791 93.375C106.208 99.2917 101.291 104.75 96.041 109.75C90.791 114.667 85.7494 119 80.916 122.75C76.166 126.417 72.1244 129.333 68.791 131.5C65.4577 133.667 63.4577 135 62.791 135.5H124.916V168H6.54102V138.375C7.79102 137.458 10.6243 135.417 15.041 132.25C19.4577 129.083 24.7493 125.125 30.916 120.375C37.166 115.625 43.6244 110.417 50.291 104.75C57.041 99 63.291 93.0833 69.041 87C74.8744 80.9167 79.6244 74.9583 83.291 69.125C86.9577 63.2917 88.791 57.9167 88.791 53C88.791 45.25 86.8327 39.7917 82.916 36.625C79.0827 33.375 73.6244 31.75 66.541 31.75Z" fill="white"/>
</svg>
