<svg width="116" height="171" viewBox="0 0 116 171" fill="none" xmlns="http://www.w3.org/2000/svg">
<path opacity="0.5" d="M5.85352 36C6.77018 32.6667 8.56185 28.9167 11.2285 24.75C13.8952 20.5833 17.5202 16.625 22.1035 12.875C26.7702 9.125 32.4369 6.04166 39.1035 3.62499C45.8535 1.20832 53.6452 -1.26362e-05 62.4785 -1.26362e-05C72.9785 -1.26362e-05 82.2702 1.95832 90.3535 5.87499C98.5202 9.70833 104.937 15.0833 109.604 22C114.27 28.9167 116.604 37 116.604 46.25C116.604 51.8333 115.604 56.9583 113.604 61.625C111.604 66.2083 109.02 70.0417 105.854 73.125C102.687 76.2083 99.3535 78.2083 95.8535 79.125C99.9369 79.625 104.02 81.5 108.104 84.75C112.27 88 115.77 92.3333 118.604 97.75C121.52 103.167 122.979 109.542 122.979 116.875C122.979 127.375 120.312 136.708 114.979 144.875C109.729 152.958 102.52 159.333 93.3535 164C84.1869 168.667 73.6869 171 61.8535 171C49.6035 171 39.1869 168.833 30.6035 164.5C22.1035 160.167 15.3118 154.875 10.2285 148.625C5.22852 142.375 1.89518 136.333 0.228516 130.5L34.4785 113.5C35.4785 117.083 37.1452 120.833 39.4785 124.75C41.8952 128.667 44.9785 132 48.7285 134.75C52.4785 137.417 56.8118 138.75 61.7285 138.75C66.8119 138.75 71.1452 137.75 74.7285 135.75C78.3119 133.75 81.0619 131.042 82.9785 127.625C84.9785 124.125 85.9785 120.125 85.9785 115.625C85.9785 110.958 84.8535 107.083 82.6035 104C80.4369 100.917 77.5202 98.625 73.8535 97.125C70.1869 95.625 66.1452 94.875 61.7285 94.875H58.4785V68.125H62.7285C66.5619 68.125 70.0202 67.375 73.1035 65.875C76.1869 64.2917 78.6035 62.0833 80.3535 59.25C82.1869 56.3333 83.1035 52.9167 83.1035 49C83.1035 43.75 81.3119 39.2917 77.7285 35.625C74.1452 31.875 68.9369 30 62.1035 30C57.9369 30 54.2702 30.75 51.1035 32.25C48.0202 33.6667 45.4369 35.5 43.3535 37.75C41.2702 39.9167 39.6035 42.1667 38.3535 44.5C37.1869 46.75 36.4369 48.7083 36.1035 50.375L5.85352 36Z" fill="white"/>
</svg>
